<mxfile host="65bd71144e">
    <diagram id="YasVegu31Iyi-WJ8jI9C" name="Page-1">
        <mxGraphModel dx="1023" dy="778" grid="1" gridSize="10" guides="1" tooltips="1" connect="1" arrows="1" fold="1" page="1" pageScale="1" pageWidth="1169" pageHeight="827" background="#ffffff" math="0" shadow="0">
            <root>
                <mxCell id="0"/>
                <mxCell id="1" parent="0"/>
                <mxCell id="2" value="" style="shape=image;verticalLabelPosition=bottom;labelBackgroundColor=#ffffff;verticalAlign=top;aspect=fixed;imageAspect=0;image=data:image/png,iVBORw0KGgoAAAANSUhEUgAAAUkAAADXCAYAAACXkaMvAAAAAXNSR0IArs4c6QAAAARnQU1BAACxjwv8YQUAAAAJcEhZcwAADsMAAA7DAcdvqGQAAFDaSURBVHhe7b0HnCRXde//q+rqHGZ6ctzZ2bzalbSKKAESIiggRBAYGYMA2wSH97f9AfOe/0S/x/MfbIONMUKyDSYYZGFAwkIJCSUUQGFRWm0Ok3PnVKn/59R0S6PZnq7qyTN7v3C1MzXdt86te+7vnlv31i2pSEAgEAgEFZFL/woEAoGgAkIkBQKBoApCJAUCgaAKQiQFAoGgCkIkBQKBoApCJAUCgaAKQiQFAoGgCqtqnWQspyKumSgYgEZmiRWcAsHawueS4KHQq9GnIOh2QZak0l/WLqtCJNOqjtGcjvsGknh6SsV4wUSCxNIQIikQrCna/TIa3DJe3+rHuc0B9ER8UOS1LZQrLpI5zcAv+xP42UAWT+U9yBXFHQCBYK3TIOm4IGzihq112NEQgHsJhNIwDGQyGZimWTqyNKyoSBpmEU+OJHHz4TwOF1wwsPZDc4FA8AoXBwv46M4oNtb54FpkoRwdHcVdd92FeDxeOrI0rKhIjqVy+NaBJH6bVqAWhUAKBOsNpWji2hYT12xtQMSrlI4uDk8++SSuv/56HDlypHRkaVhRkfzN8XH8eNiFuC4EUiBYr/TIafzhnlY0Bz2lI4vDKSGS9x0YxeNJD7KmuA8pEKxX/FoGH9wdRRcNuRdztvuUEMm7949gf84HTUzWCATrFomG3Jc1G9jdXg+v21U6unAOHDiAv/7rv8bQ0FDpyNKwoiL54MFRHFf9MCQhkgLBeubMYA6nd0ZJJBf3vuRysKIi+eujYxg1WCQXr3cRCASrjy2eLLZZkaQQyZp49sQ44gigKC9cJE2ziIJuwEeVsFi3PXTDtJ76UVzyouWZ13R4lcW10TBNeBYxT7ZRkWUrLcaqLK4bjW10uRbNRpXqmu9vLZaNZZbKVobzXKzrOe3rbOPiGFn2dTf5+lKsxGuTMtjUWgePEMna2D8wgYIShLQAkczrJqYKOiYoDaXz6A75EPG40Ox3w8viVvpcLSQKGuKqiZGcCp0cstnvQSPlWe9T4JqHUxp0iSdyGlJ6EUcTGbQHfahnG31kozI/G5OqjphqYCSrIk2i1kl5RinPRspzPk84sI1TeR0pzcQRsjHidaOJ8mqxHi9TSJBKH6wBrhuul0nKdyqvojXgtWzkupnvUxiTdB35aax+qusAiUSDV7HqhpeXLGRSYKlsTZKtfWQr29Ye8JC95EfztJVtjFO9j5GN7Oud5OuWHy3A11OU31TJjxbD1+ciZKTQ1SREsmaOj0xC8pJIuuZ34fLUmz41nsUvRzM4mC1iXPKipVhApwe4sjOIc5sC1vOjtXSNo+Qs9w0m8FRMQ7/ugl6U0CTrOKtOoTzD6AnXtiiWbTyWKuCOgRReSmkYosi5vpjHBi/wlo4QzmrwI0qNppaIgEX8vqEUHp0ooE+TkYOLemoN2wLAW7sj2F7vn46wHMKR6KFkHvcMprE/qeEE/PCbGtoUA5e1+PD6tpAlvrU0bLbxuakc7h3J4GiOfocbDVCx1S/hGstGH/zUQdRSN2NUN7f1JfDbuIpB0wN30UCrYuL8qBuXtYepo/DOa8EyC8VvJ7MVbb2abN05D1vZj26fYSvT6dLIj9x4c0cYXaHabC37+iOU9qVNjJGvR81pP7q6M4RzyNdDNfr6BNn44Egaj01O+9FMX39jewib69iPar+elZBzCbQ21sFNI561xoqK5PD4FHzBMFw8DJkHjw0ncePxPA4VSMxmOccmRcUf9QZwQWsIPsvB7eFnyG/eP4mfxV1Iz1qW5C6aeHNExwe31KMn4nUsGL8ZSeI/+nN4OqsgP2vBfDMK+GCXB1f31Jcc3J4CRRO3HY/hu8PUUAwZxVnlfo2vgD/ZVoetllA6s/FIPItvHE7j1xnXSTZGJSpzhwtvIxvDFGE4gSOS249N4dYRHSc05aS62eXO46O91LCpbjgCckI8r+FfD07hjjnq5poGEx+iummlaK2Wds223nViCj8Y1nFMPdnWra4c/mRzGOeusK2PDiXwzROFOX394+TrF9bo6985SL4+JWHKdL3Kj9jGiwLUfnZE0RtZnGU7uVQcjfURKGtQJJ1d0SWCLz07yXxSStVw20AWRwvUA85yGuao7sFPB9IYJ4dlKuUxO/12LIVHUjIyJv0yC02ScW9SwUMjKWRJqCp9f3bKUe//i5Es9mZPFh9mHF7cM1qgoY5zG4/RUPj2MQPjFQSS+XXei7v7E9YQvNL3Zyedosg7B5J4JitXtDFWVPDToTwNGQvg/rRSHrPTaCaPX0zoFJ2c3KCZFzUf7hlOI0ENldtfpTxmJj7vw4Nx3EfXf7boMFw3d08V8cxEBqrhrG7KiW39+ZiO42plWw8Zftxbg62cfjUYI1tPFkhmPrayr98+mKvq67fNw9fvS8gnCSTDNj6W9eBXFGU69XW7tAg6u2K4Pk+Ufl52JlI5iqXcKJAo5fViTen+E5O4kxpNqoIjlpnUiuhxG2jwuEkMeMhSOS9OibyO/zyRxL68C9ocfYdJNV3I57G7jnc2IVGpkM/M9NRwAj+ZADki51fZS6ZI7BrNAtr8HhgkUpXymZl+cjSGJ3MKClXWliZpqLsr5IaPInTedq5SPuV0YDKNH1IUNWac3FjKxKmO/IU0uoI+6zOV8pmZfk5R5IMpBdkqNvL91C0+CWG3m8Siuo1DqTy+P1DAcRKJuZ7v1yQSuVwWO6wFy/Z1U053HSdb0woyTmxVyFYbP5rKafhBHw3bq+xFUKuti+3rKXKKW48n8aKNr+fJ13fSqMlN9uaNynk5TaaWR9DPt6rmLsNqZUVFciSeoYbkpgqoXSTvo979IDWauSqZYWes13Po5sZtI0CHJ1K43Rp6cH5zd3t883yHX0LQRUJl07gfH03itzmOIue2kZ0xqOexOeyn36rbmCQh/9lQBoO6Yn1vLvieWkcxiyavx7rPVCmvcvrNSAK/ziq2uy+5tAJ21vnpats36ruGUjhmRZFz55mFghYzR52D17Zz2D8exz0UmSWriASjqQXsqffD7aADK6f7hlM4bEWR9rbyZI5pY+uLo1OWoCVsbFXJ1tNJJD0y+UeFfGamX1JEd4BEV6vil+zrYS2LDSF7X++n0ch/T/JoZO6OkUmRf28m4bU6MhvhtUsuQ0UkQCLp8JbFamJFLS5Q75Sgqx8v1J4m6Ht07W2JUQ8bq/D92Yln97LkXNWchknIXhry5jCR0yvmMzON5E1opr2RU5rpyMbDUykMF0n4qghkmSn6PKdK+bwq0fVxsm/nmFrEZN6onMeMNJ7VqDw8W25v4yTVoRMbT2RNq5HakZXcGEoXMOXATk5s64gKqyOxY5wMcFJHQ1TnTmxNkh/1kR9NOvCjGGXIqw/sGC7wCoXKecxMgxSZJ2iYbdr4Ol/P4bTq+HpWS9r0Kqg1yYqKJIfwLJLsBLUmlb7rZMopTUrKy3kq5TEzjVFFOhFdZoo+z8smKuUzM7EIOPGNKRIqzrNSHjPTKA3lcqa9kDNJytNJuSepHE4aoNVgsgVMUvhcKZ9yOh5PY5RGB06EnK8PC0+lfGYm/pyTuuEObDA1LTyV8pmdarGVN4JmQa+Uz8w0QULlpNPh6zmRmxagSvnMTBkqvIO+Flk6sZM6H8wZoD7PEdw52NW5k8TBgsNTrjpWVCT5XlScnCpGvV+tSXeikAQ7bIKdu0IeM1OOHNFhltbat1je3u4CO4bTPNmZKuQxM41TcirkKp3bybXlWwZOsmQBGqEIxBKgCvmUUzKvWbcXnAg5VYsVZVTKZ2ZiwTcdXsgcC4WDPDnVYqtTP5oW9BpsdVDvTvNLU36WKFXIY2aqxdd54sbp9ZwrxSlidylr91UOKyqSdN2QpEqYom6t1sRO6wSOkhLkFJXymJlyVk/nLFOV8uR38VTKZ2ZyaiOTsKLJ6qk2G0mAHNhIp3WY43Tkz426Uj7lZEU9pc/bQcVxVDcs+E7hWzhOys2pZlsd1FHNttpcT04r60d8PSvn4zTlcmm01Afh5ga/BlnRiZt0roCXkkBMpx6LKo4rz2kay+UxBbft5hgNRRUhxQuVooVK+ZRTqlDAgKHQ5+z7jTb6lIfyLBSr5znq0MYI2Rj1eK0b85XyKadUIe/YxlbKzaN4bG2cIhtHi7w+0D7Pbkklj+FXbMydZ17N46iuoOAgOmt0WDdTeec2dpGNko2N5ZSn63mUrqdTW4PulbHVqa8vhR859fVqqdml4bSWIPwO1wKvNlZ0MXksW8BtR5J4NiUjbzMbOJvBdALH4IcqVb/wW8002oMhKDaPPhZySew1fcjCviLPRBpRfwiyTZ5Obew0UugNha2ZzmrUYuMZZGODAxtjmQReIhvzDvK8UE7D7wuR18z9WVlN4gndh3TRPr+tZorqJmxbN7XYeAHZGLCxscxasXUl/cipr89FSDZxeXMRr+upR9Cz9haSMysqksyhiTT+83gOB9Kw1qo5uT/E5PMJ9EsBW8fpJef2e0K2z4crhSQOSn7rET87dlCeCuVptzGHUxvZuSNee0esxcbt1Dm4PUFbG81CAkfJxoKDPM8oplGkPM0q5QmS8LxADdpJA3RaN4ttY5nabeV9Bqo39KWwdSX9yKmvz4anF0OSiddHTbxre6P1LPhaZcVFknl2NIV7h7J4MiFZi2L5fTc8FKgmmBE9iRHZ3nG6yXGyrqDtdmwNRhKD7NwOGlcP5ZlRgjSkqv5Zpzayc+dXyMZ6snHIgY3MJsozRXlqVfJsps/0UwPMO8jPad3UZmOabAxUtbFMrbbmyFZ9BWxdC37EcIt1w4CXBoXtHgnnRYp4x6Y6dIadP8a7GlkVIsnws6T398fxfEzFmEZDDL36y8G0TBoDDnpXjgC8fr9tT+jNp3CwGHQ0TNqOFGSvH6ZNnk5tZOcOBfzkZctvo5RL0VAu6CjyOV1KwvAGqjbCcCGFfWbQcXTmpG5qttFDNtrkydRqq4dstaujxb6ezFrwI8ZHkWOnYqDNK+F1LT6c3RaBb41O1sxk1YjkTFgw+2NpqMbcqwy/uj+Jp1R7xzlXSeEPNgXR6K3+uUeGUvhezI+YaV+p1wbTeFtXwNqSrRpObWTn/tT2INr91T/3MNn4fYc2vo1svNaBjf95LIm7MgFkHNyX+6NoChe2Bq19DOfiyEQKXx33Y1S3z+88qpvfd1A3t5CN95CNTu4dfpxsvMjGxjJHJpJka8CxrR/uDaLJt/y2rqQfOfV1hvdy3RgNwbsOhHEmq1IknfDxR/rxSMZj6ziX+LL4P+e2ocPmTW0/2j+Krw7KmHDw5sb3NxTwR7tb0Oh3l45U5mMP9+FXWa8j5/7WJZ3ojdjb+A9k4/gi2vjlZ4bwn5PVnwsu87luHW/f0oigZ+48n+6fwCcPFzGg2tvotG6+RDbe6tDGz5ZsDFWxscxT/eP4y8NwbOv/Jls7F9nWd9hcT8apr9fiR4vt6+uZ2qaUBQKB4BRDiKRAIBBUQYikQCAQVEGIpEAgEFRBiKRAIFgzFAoFJBIJxONxxymVSsE0nT6lfzJCJAUCwZrhwIEDuPXWW/Hv//7vjtMdd9yBZDJZyqF2hEgKBII1w6OPPorPfOYz+PM//3PH6Stf+QomJydLOdSOEEmBQCCowrxEcnBwEI899hgefPBBx2lkZARGlSdoBAKBYDUyL5H82c9+hne+85247LLLHKc777wTuVyulINAIBCsDcRwWyAQCKogRFIgEAiqIERSIBAIqiBEUiAQCKogRFIgEAiqIERSIBAIqiBEUiAQCKogRFIgEAiqIERSIBAIqrBsIqnrWWhqAqoaX5RULDp7xLFYNKFpqYp5zEyGkedPT3/JhqKpUZ7JivnMTHxupzi1sQhneZqm7shGk8ritNyGWaDvVM+T67no9Do6rJtabDSNAvmZfbk5GXquNlvVxbfV7npycurrzJL4usPruRyJ68yp7YvFvF4EduONN+ILX/gCRkdHS0fs+dpXPoC3X3sugkFv6cjC+J/7zsdjhXbblyNdqAzjU1t+izZf9Uci7xjoxo1Tp2PS9JWOzM17gwdwQ88hRD1q6UhlPvXi+XhctbeRX+D01Z2PY0MgXTpSGbbxm7HdmDD8pSNz8zvBg/hgz0FbG79x+DT8JLMZ6aL9i54+1fgM3tI2gIBbLx05mecnovjcyPkY0oOlI3PjtG7++fAu3JbpRapY/QVXzF+SjVfY2FjmufEoPj9ai63Pkq3Z0pHKLIWtTn29Fj+qydc3HEbUWygdWVm+/Z2H8OW/uwNj4863Pjv33HNxyy23YPPmzaUjtbFsInnz15rx7reHEAouTvD6J89+A78qnGnrOBe7X8QXdnwGHb6h0pHK/KTvevzDxA0kQPWlI3Pz/vDP8dHeG9HgnSgdqcwfP3sjHi2c4ci5bz7jI+gNHCsdqcyPycavTXwA40a0dGRufi98Jz7W+w1bG//u4P/Ej5JvpkYdKB2Zm88034i3df4EQXeqdORknh67GP9z6C8xqLWWjszNxe4XqG4+a1s3f3vgf+G/Um9yZOOnycZrbWwsU7Ot2z+HDv9g6UhllsJWp75eix/9Yw2+/hHy9UYbP1oubvpWAv/7b2MYHXMeXS9UJMU9SYFAIKiCEMl5IEt8X9A+AJ/+3OLhkTRIy3w/powLJjyuAiRp+c/vlvQlKbdLMqxyLSZeWaVGtTJ1pCzRdTrVWbMi6VSAZGoE9q9gZwFi53aWZ8iVoQZm/9mQzJ+zHxb45Lyjcze7Jy3BcILVYBwI2nTDsidsqugM9MEtV783FXYnEIDqqLH6KS8nghJ1x8lO++vIguetQcgbfeOIIEffc2irgzpvck9Ake3rqBZbuexOrmedknB0nXzWdXfm69ZnF7mzX2usWZGcFip7hwi50o6ihSb3lCUYdriLJrp8A/BQxGBHq2fckah1eEYoP54VrU6DdxwBiQXVvsHUU4Nxwf7cUath2X+uUUqh3T9IIlndzm3RF7BBHrOukx3d3kEr8rKjQYk5sjFiCXm/rZCX6Q4fQbs8CcXB7HGnd8iK5O2oU1JQYJ9fLbbWU8fjxNe5E3VynbgsLH52cLvZ4O9zVEfrmTUrkh3eYVuhYjHp8pFzO2mIJEB1FPnZCVAb4tgSOUBRAC+jqE472ejEwaJKnBzSvhGwAG11DcJjI35BFNDpH7AVNKaDG4xEEU3p97nY6HPeWFig7Rorl6HFO0qfs7dxg78fEQd10yLH0OGw3GXaPaO2n2exaOBO1EG+vYGjiFDHbBf51WJrmwMb+dps8h93JH4cQTdQp6fYBA9NSKM7cILO7azTWa+sWZHcFXoJUTlV1Rlb5DhOi7wAn8t+R3QWoAt9zyFIkdpcsCOeGdyHZu8YDUHsRe3s6FPoVkaqRhYsaGfV7UVQyZSOVGdn8ACCcvXy7HEfxll0br9SfbkKsyf6NLa6KaKpIrxeaNgd2ge/g+vInB1+loQiU1V4NylD2B15zlHdbK3fh9O9h0jM5xZpFrILIk8ipFRf/jKb19Q/iSZXvKoAd0hT2EN15HfZX8+NkSPY7TkM/yLaen7dk2h1TVa1sUFKY2f4RUfXkyPos30vkY02vu5/CT3BYzV1OuuRNSuSr2l6DOcFnkdYylVsjHxf7Irwwzgv+htHjsO8ofEB9Hr65xQ1Ft3Lm+5HRHG2RmtrZD8uj/wKja5ERTHnaOoC3/N4ffMDJJLOGszrmh7EFg/17nOIWr2UwZsb70MdDdGc0OwfwZvrH0KHMmY13tlwYznNfRyXNv8SYRpKOuGSpodwptUIK0cgQaqzK+qoHOFDjhpggM77xui0jZXupbGNva4RXN58H9lY26tDy340V+fItr6l7iGy9WBNtrZXsbVHHiNb73ds69lNT+DS4G/mDArYjy4JPG11yrX4+iZvdV+/qvlux360nnF9nij97JinnnoKDz30EDIZZ9EPc82VQeza4YHH42SawB43Df3q5DRiaiMSeh3UoodcUrIaekTK4pLgXry77cfWsNPJJAvTHhhAwDDQr3YiawTJ9XhdmgRv0UCLMoV31t+DK1vvRNjBGrwyzZ5JTORbMaE1QSu6yTrZspFF/AzfIXy487vYFDzq6J4Tw+vVPIaEYa0NOT1AMZ5CzWbaRhbja8IP4V2dt6LOEy99w54mstHQfRhWW1EwfdRsZPof4KMrsMkzgOtbfoyz6p+xJhqcEHSn0eKKYTDfiYQWoVymbXSTjRE5i8tCv8F7On5Ew+0xx5Msrb4x5NQQRsnG/CwbOVp/X9NPcVHjoxQ9OxOJMmU/Gsh3zWnr73X9B51/tCZb82TrpNZItvopz1fb+p7G/8bFTY+QoNpHpmUa3THE1QYrz5l+FCIR3+M/gPe134Le4HHHfjTt62ZFX29SEuTrd5Ov/7wmX18Ont5bwMOP5Ul7nNUF09HRgeuuuw4NDQ2lI7WxZkWSafcPYRcNP90kGihKCNFwqNc9hEvJsX+/+9tWpOJkpnEmW8MHEDVzCBSnZ4frXSmc5T2Ia6P34rquW1Ffg/gwEeqJt/qPQTFk6vE1a8i60T2M8/0v4APtP8CZ9b+Fp8Z7Pmxjlzxp2cgdQ50rjbN8B3B13QN4X893EfVMlT7pDBa1XeH98BlFcJPmiKlNmcQ5FA1+sPWHFOk+WFODZrhuOima8pkmFOqkwjT83uE5jtcGn8INXd/DhsAJR7csyrCYnRY6YM2ye4vmq2y8rvlneHPb3QjNs0Evla2tSMBFfsnCNdPWK9tqFx/uHLcFjr7Kj3rIjy6mYODD7d/F7rrnHN17n0lFXyc/uor86D3dt9Ts68vBSojkmn3iZjb9qc3U00apYqfQFuRZw4XfRzkY242cEcC2+hcc3d+zYzzXhrFsOyKexKq1MauH0ZfcZC376IkccjRBZUe5bjqozFFq7LUITiWWwsYya8HWteBHS8VKPHGzbkRSIBCsf8RjiQKBQLDKECIpEAgEVVi24faNX+3Eu66NiOG2QCCYN//y71P44t+NY2zc+YTsmrkn+bm/eTPectV2BAL2+xYKBAJBJX70g2fxzX96HJMTzieX1oxI/s4Xb8KeK6+DN2C/walAIBBU4rEf3ox7/vmLSE041x4xcSMQCARLiBBJgUAgqIIQSYFAIKjCqrsnGSiOwSPxDjLOnrfOFhuhShEUq+i9rxiHT4pTns4WoOYoz8Ii56kWw8hJjVSqud9TohSzCErjdFZnM3fTeTZQnkrpSGVC5hDcMj/pYV/VetGLjNRKeVafYAubg1CsxykXL89a6r5oykjJnXT17V+4NZO1YvdS5FmrzzppW2U8xTRdJWf2sr/mLb+t/s6eSqzEPclVJ5K79e9hg/dxcmRnj289n7se/a5LoEtzv0Fwo/YLbPf9HF7Z2a4rz+feS3m+dlHzPJ57LQ643kniW1c6cjKN2ks4y/dtBGRnL11ykifzGv3v0ew9ANnBc+yT+S3YK/8hslJz6UhlLtD/Dk1WnvYNzmmep+vfRbf3CUd1n89H8Jj8KaSl9tIRZ6wVu2tpB9N5/iXl2VE6Upna24F92yrToT+BHvev4Jbsd7NKal3YL7+LhNL+hXazESJJvAZfwRnRH8HncBup+0Y+i8PSW6HJc+e73fgpLm78BwTdzsTHylOmPCW7PP+R8hwvHanO0+PvxzPFj1g96Fw0F36LK1s/hTr3QOlIdTjPvZQnR5PVuML1P9Bb9wgUl/0GCMdil+BB/fNIo3ojvsL1p5TnrxzleTT2Wjykf5byrN6IL6C6P91h3ceSXbhDvQnx4sbSEWesFbu5HZwZvRVeB9vTTef5Tcqzt3SkMrX6rJN2UKaWvJ36WCXE7LZAIBCsMoRICgQCQRWESAoEAkEVhEgKBAJBFYRICgQCQRWESAoEAkEVhEgKBAJBFYRICgSCJUMtujGlRzFQ6MAgpSktirzpBb+Rcq0gRFIgECwJY2oTnk5egDsn3oXvjXwM/zHyEdwx8R7szZ6BmOaGWfNjLCuDEEmBQLDo9OW78OPx6/FvA5/HE7GPIV64GrHCNXgm8Ye4L/luvJgKYFI1YKwBoRQiKRAIFpWkHsa/D/8hnk++B93eeuwMubDj5aRga8CHAKnj4aSGlG462GpkZREiKRAIFpXHkxdisnAuWj1BbAi6sJFSb1hBb4QSCeWGACW/C0HTxGhOh7bKx91CJAUCwaLy68Sl8Ej1aPbIaPW50Eai2BWSKbnQTj+3+WQ0e2W00N8n8wZUIZICgeBUgWezY4VeeGQfaGSNsFtCPQliE0WOTX4ZUfo5TOIYclNSJMgskKt8vC1EUiAQLBoZI2Bt0svC4pJIYCi56Bc3/cKJf+bj5b+t9vuRjBBJgUCwaESVBDyuJLSiARpJUyoiqxWRKJhI5E2k6eecXrSOc7KWS3JaxQiRFAgEi8rmwF6oZhox1cQkieN4zsRIxsAwpfGcgUkSyxgdj5FguhWKOqXVrZJCJAUCwaLyuuj9UFzHMaqqGCKB7CdxPJEy0Jc2rJ8H6NggCeUURZLdQTe8PO5exQiRFAgEi8rOwAFcEP0pXPJL6M9lcTit4XBKxyFK/O/RrIZhzUTQr6DeI1v3J1czQiTXObwGLWP6oBXda+p5WcHa5p1N/423td6IRu9DUIsHMKH1YVwdQNo8gmLxEOoCJraEVn8UyQiRXIfw/fAE9dRx1cBIzsCTmXPwdOoivJTZhYReB1NUu2AZuCjyG3y860u4vuOLeF3jN3Bhw014e+uX8f7G7+OMUBqeNSCQjGgt64wCRY6TBR0HEioOxQpI0tBmb+Zt+Pbg/8VXTvwN7pp8BwbyXSSktb/zWCCoFZ7tPj24D1c33ou3N/0cF0SeQr2SpDHNWlj8M826F0mOqjKmG3GjDjkadq7nISe73WBWR19SQ4tcxGlBF3aHKIU5Kehwd+AX43+M/xr7AEbUNhFRCgQOWLethO/FxVUTE3kd+3LduG/qKjwWfwNeTJ++boecMRpiT+Z0tCoSegMubCKR3EziyGkTiWUv/b6Jjj+XvBaPJ16LrGH/0nmB4FRnXYpkjsLH4ZyBl+IFDCZVDKvb8HTiBtwy/AX8Y98XcdfEOzCY74S+zoacR9IaghQot3lltPtc6CBR7CZx5NRFP3fwc7P0tw6PjIdiV1JnUV/6pkAgmIt1J5I6jTmPZTSMZ1RsUIBdJA6nhRTspGhqF/3bTkPOeyd4yPl+TGjN62v4TZ1D2CWhziOhnlIjCWJzQEYbXQN+dpafoa0jgYy4JSS1TdSZhMWMt0Bgw7oTybGCgWzeQCeJgTW8DLuwhRMPNylZ2zaRYLyYugp7U+da9ynXC0WzaK05o9E2PBQk++iHoFtGgBIFltZyC/oRpJH0YR8yRoh0dV0OJgSCRWPdtZBBiiLrqFStJJJtJIY85OwikbQS/dxOx3jI2aj48cvYW6z7k+sFiUTQIKHUTL4nCxQosuTnZHO6CdU6VoTOiaJtScoj6o6RoBqlbwsEgkqsK5HkmWx+cUaIwikeUvLQssHrQgsJY2vAhUYKp3irpggNRfnvKW0jiYp3+svrAA+VO0NimNR40qqIqYKJsayB0YyBiZxhPS+boL8lSSUbPYdIIPOlbwrWC9wGeBkYbx6hF4traKHN6mVdiaRGTiGRV/CQ0xpWUiKdRICGnQFFBuml9bubIi4ekqb0ZnIqd+nba5/WgII0lX+MwkZeRD5EijnAz8tS4n+HeaMBfmZWy+HMyMMIulKlbwrWOjNXcwxkdPRnNWvX76mCYU1kCrGcP+tKJH28gp/+z8NJCpgsx1HJQbJ0IENDTu5duZflY/w3rxyHLOmlb6992qgX8HlcGKXyHs+aOJbWcSRVSvTzMWo8I2oKzd5f4y0Nd6FOSZa+KVjLJIwwBnPAvnjeWs2hF8inSRyn0pq1wuME/ctPYJkURAhqZ12JJCNRGJkmAeRhJQ85easmHm5ODzlNxAvTf0uQkHT6X6LIkrxrHbEj4oafxHKCrsFRihoP0HD7cCaHwcIE0sZxdPt/gfe334hG90TpG4K1DO8E/kj6Yhop+NFNwyN+gIBXc5xWWs2x0ydDJdE8klKRMlwwxWqGmll3ItnoU5AygVESCB5eDtKQk4ebnAZJKHn95CgJZ0pP4LX19yKyzqIpRZKwM+JBd8QLiaLKlCQjIO3FtuCPcFXL1/BHXV/B1sBhMWGzTtif2Y692TehwV0//QBBiB8goET/vvwAgd8FiSLJY/kGFIpK6ZsCp6w7kdwYUOB2uzBMkeIxEsWjNMzk7ZnKQ86jdGxcm8SW0C9wdvg38K+zSLJMk0e2xPKsqBfvb/oJPtT2Hbwh+hCCrmzpE4L1wB0T16BYbEcrjR6s1RwklN0kkt0RBZ0kkHyslaLJdvKHffkeZNfRROVyse5EkjmtbnrIOV4ach7OFnA0m8SYOkQ96UHsDP8Uv9v+Hep9Y6VvCARrk5TeDZ/spRHR9EMEDb7yag4ZjfQvP0AQcVOiv+tmPfSiRzxAUCPrUiTLQ84NNOR00fDbLfWjw3cPzqn/Fn6v44v4/fZ/Q4dnmApP43KBYA2TN+rJjxUo1JJ51Ub5IYKZqzn4b7yaQ5IUaKYQyVpZlyJZhoecO0JuvKnuAD7acTPe0/ITnBl6AV65UPqEQLC2UeQMRYcGid/0ag5+gIBfvJWmA7yaw1rJwcma2NYo6syJ4KBG1rVICtYeWSOAlBFG3vSKiMcBG/wvQC1mX1nNkTcx+vIDBPzCrVdWc0Rck3CtoyVvy4UQScGKw0FOkiKfE4UOPJK4HPdPXY3H42/As6mzMabygn8aNwoqck7kcbp+oxhXdWvlBq/gKD9AwD8P0TF+gGCMhLLLM0SRpFr6psApQiQFKwoFOJgsGNifVHFb7G24c/zP8IvxT+AHw3+NLx//B2uD4JeyO6CantI3BDPhVyTs8D+MKT2FY1kTR0kcX17NQYlXePQVTOguCTt9o/BLWumbAqcIkRSsKGN5A4cSKqLF0k7qvAg6PP3vjkAQzyffi38d/DMczfeKiHIOrq2/C1FfEhNGEcdJEA+SWO7PkGBSBDlEvZCmyNhR54HfJZr7fBBXTbBiZKlRD2ZUtJD29QZKW9uFeGs7xVoMXd5JvaDvwS9pCJ7QI6VvCmbik1TsitA1q/fC51eQ5Y1OZAmmx4X2sAdn0PEwCaUkbvHOCyGSghWjL6vDR8Nt3taOt7DrIKHsInHkxdC8rV0nbxjsc6GNGvvDsXdgQmsVkzlVqHfL2Bx0Yw+J4p6oFztJIHmROS//EcwfIZKCFSNvmCAdnF4ITQ28vBDa2kmdIkje1o4XSPO2diHZZ4mkZq6fXZsEawMhkoIVwzR5nd/0bum86JkXPwdYEOmAn4TTS8NGD40R+e9u+jep10GHuC8pWF6ESApWDL5HppNQ8gw3L4YuGPwSNyDDC6HpIC+EVs3p3dR5obTflSWJXNqF0DES4r58Nw7ntqKv0IGEriBP57bWYgtOSYRIClaMEIWPORIg3kk9ofLC5+md1EeshdCGtbM6/413UteRxEbf0SV7Woq3HDue34i7J6/Ft4f/FDcOfBo/mroeLyQD6M9oiJF9vNO34NRDiKRgxWj2uJCnaHKMIscREsRhEsiXd1InoRzOTu+kPqbq2BV+AEFXovTNxYWXFj2fPhP/OvgXeGTyo8iql6NOPh2t3g1okSiSzOk4lFTJFkMI5SmIEEnBisGzsU0BN2I0xD5OAskLoY+WFkEfTRnWQujBfAY+1z5c13LLku3a1F/owg+GP4609hps9PuxLeSy0nZKW/lfnkiSiuhLa1ZkK2Ty1EKIpGBF4f0/IyyURQlDhSRO5OM4nMniRG4KMb0fTd5H8IGOr6LTd4KcdWnuR/KejLrZiw6vG90BF3pIGDeGFfRQ2kA/d/EejT4XwhRFjlBUyfdJBacOQiQFK86WoILNdR70+J4hMfo5Grz3oTd4Gy5t+iY+0vX32B16AZ4lepzOuheZPRt+OYxGL0W2Ptl6s2YHiSOnVr8LzXSs0SOhmSLflEZDbiGSpxRCJAWrAh56vz70Ij7ScTP+auPn8Mdd/4RrGu8iYZpYsgiSsTbQMMPwyTICLglBRbJeOdxAwsipjoSzvCTJT383DTHcPtUQIrlM8Po+ldo6L2URjWz1oFmvFJ7jkRTrMNdWqcbod6v+RAWeUgiRXGKSehgHsjtxKNeDwZxsvQ97Km9Yr/gUM6UrT6/vBNyuBPKmab16mFNKLVIdmZiiukrSz2mtaL27mpOPokp+c7Hg1EGI5BIyUOjA/bEr8fcn/ga/TF6FeM6LdEbFkXgB+xOqtf8fvwdcSOXK0u1/DjkzjUnr5f4mRqlehnkJUtqwNrAdp2MTBROT1LGFPC7rKSHBqYMQySViUmvA90c+iHvG/wjNrm7sCnmsLcD4fcin86SAi0Q0pWIop4uJgBXmrU23Iazsx0ihgD4SxT4Sx+MpHcfpX/65P2tikIQyWZTQ6VfgESJ5SiFEcom4c+oqDGQvRYcnjE3WFmAyNvMWYJSs9yEHZGz00PA7o1u7cgudXDl4yP2Gxh8g4n4a/fk0DqR1HEgZlHQc5LWbFFnGWSBDbgQUSexDdIohRHIJyJs+7E1cjoAcRauvtAUYCSWvueum1BlwoZ2Ot3plRKnFDecNqOL+5IryhugjuKHzb7EhcA9c0l6qj31Iaf0YNzRkZRm9EQ+6KIrkjTYEpxZCJGfAj6eljSBypkI/z78xHMv3QCrWWRud1rkl693HTfwuZBJKTg2l9yHz33ibsKwuIsnVAEeUn+z5Ij7R+wl8sPOzuKL+h9jTkMPZDV5EKepfzaNs602JlHgyULjS4iJEkihvbvBs+jw8FLsCL+W6MZaffvcKz2jW6nSTWpT+S1EHtSreAozvYXlJDEMeydoKjILIl4/TrzD4HCKSXDVElQS2+I+i1ztEowF91Q6v2W+P5TbiYH4nBrJuDGd1jOUMy29513fhUYvDKS+SvETnt6lz8S+Df4Gv9/0d7hj7XzhROB2DKWBfrIATac1arlNLpNfuGaWoQ5veAowSP8ZWfh9yjpJqTPf8Ggkjf8ZlhSirOEwRrDr4lg6/TfIm8tsbxz6HoUyTtRHHRErFvqkCjtK/MXK0WvxWUJlTWiR5eP1Q/DJ8b+hTKOgXYlsgYM1Al19EtdMvQy3wZgsqMobpuGfu9A6TSMaQ1qfX2SX4fcg509oCjLcC43cj8zuSrW3ASDyDbpmEsvRlgcAG9tunU+fhu0OfsPx2+wy/3UV+u5u3e9cMHElpSOnO/VZQmVO6afLuLw9M/g78cic2+hVrFnpzaMYMNM9K+12QKJLkt/o5Xarjk/PYHnoMWTOGURr68BZgQySQvAUYJ/55hERztEBiSSLJ73HhHbgFAieMqK24bewGeKUN1gYh7Kfst9YL1Egord/Jb33UsQ+LDTkWzCktkndNXkG9bDtaPQraKGrs4N1eeAaaHK2THK2DJ1t8Mg2fZYxmdevGuFPe0fxjdPmewJiawLGMjiO8lMTaAowS/X6MhHOYIskIiTM/G7yaJwUEq4tHkxfCMLvR7HGjnfyzg3y1Kyy//AI19uOy345lNetWj2D+nNIiOZTfTr2xf3oGmhyqkRyrmd/QR07WRKI5PQMtWy+iksnR+FUDTt2Nb/6/u+3fqIe/G3kcQl82if1pHfuzJo7w0Fsvwuvl9ZNueFdQITNGACkjjLzppbIJpV4LnMhth1sKIMKrJ8hvG8hPyy9Qa6Z/+QVq7M/suyGqU34Nhggm588pLZIpvYn+67ZeuUk+Zb14KkCOxfcIyy+ioh+tGWhO+RqdjZeUfLTza7i25R/R4nkaaahI07Da8LjQU+fFtrBnRQSyPCu6L70HD8ffYr3T+vHEG6yJgAk9CvPUdotVT0Jjv+XVE69+gRr7rU+Z9mNeWcF+zX7LM93izuT8OaVbg9+VINfRrRlojaJEHpbwC6h43SK/lIp7YF53xjPQ9Ku1dKdWTeP7kxfXPYE3R/biNQ2m9T7k0yMeNJF3ky8vOxw5/jZ1jjUr+uXjX8fto/8v7pv4BH449Nf0+z/g3vibMFLwgoouWKUEXHHy2+lXSbDf8mqJrE6JfsnTv+y3vHqC/67S51k0xXNC8+eUFskN/n1Qzaw1yxynZL2IKmNglBK/iCpOv/PMNL+IyqArxb3zWnY1nhV9InkRvjP0CailWdHdoennyXlWdEcgiAHtQjyX8E4veyp9T7C66PEfIBEs+a1qWi9MG8+WXqCWNyw/5hersd/mqLPjfTJXokNeL5zSInlp9JckfP2YUDVrC7NBcjR+AZX1IiqeheZ7h3kSThKMehrHrPXdX3hW9O6J98IvdaOnNCu6iWdESSg5lWfz6ylOGcpqVkQiWH1cRCMTn+s4+S2/nMykuprxAjVKwyW/HaEOPkBjcbFr0cI4pUVyZ+AAzqq7E/liH/pyGo6Rg/FLqKyU1q1Z6T7qlfOSjJ7gyk6wLAY8K6rPnhUNydhAQsmzop0B+eVZ0TiN28TSkdUJ3+u+uOEn1HoPoT9XsPz2KPmr9QI162cDJ6xdi0Cdn5sEVYjkQliTIsnDxgmtAX35DRjVwojrQFo353Uf7R3Nt+O8+lshS89RnoM4kYvhUKaAw9QbD1BPnJdlbIl44FsHvfGJ7Ha44beeF585K9oanH623JrNp+MRnrySxKzoauaN0Qfx+obvkwA+g3F1GIeyKg7QKOgQRZX9NPLJUP3xe4NCiizuRi6QNSeS/Bjhi5kzcTsNG78z9D/wUOp0vJSUrKcLRij6qfVZa55Y+d3WW/GBzr/FhdF/oSEn9dDog+Yqoo6ix9PrPQva3IAnSjithhnjlN5A5XBb91Z5ZnT2rKj1LHnpb2JWdHXDfnt14z34cNeXcE7ohzDlJJLkY6riQsCv4PSoFy1UwSKIXDhrSiRZbB6IvRnf7P8s9sY/iLxxGTq9LeihVh0xTfQnVetZ68w8HsXiofc7mn+Gj3V+HVfWvUDD8KL1NAOLRq3wc7W8YQYvsXko9hZrmc2xwgZMabI147hSNLhH6L/qy7OiPIPPs6KZWbOinCiIFrOiawAeel8ZeRDnRQvY0+DFbooet1DnLjYGXjzWjEjyEPvXyQtx78SHEXF1YysJmPUC+TC/SL70Mw0Zs9Ta+zP6ij1lENPr8OvEJbh54JP42+Nfx22jf4WfjPwV7oxfjWcTXgzlDGu95UpY1+U/DNXMWzP2PPvJs6BzzYpmycCgmBUVCNaOSMZJfO6e+B0EpCZ0+2RsCLqwkYRxIwlkL/3Lv3f56bhXxlROo4a+/Hs0cgT5i6mr8MORT0IzXoMdQV5iw69rUHBa0IMuRcJgSkUfhW8rMSlyTngvPK4TmNBUDJdmRcvPk1eaFZ3enUggOLVZMyJ5ONcLw2xFvdttPT5YfgyrkwSyndIrL5GXEaXGnaSIaLmHts+nd+NXU+9Fg9KETYHSRgNhBVsi0xtmbArI2EwiPpHVMEVj3eUOdnlodknDTyCVZkWtmdDS8+TWs+UslvkCUnTdFjIryk/0JPQIhtVWq3PTaRQgtoITrFXWkEhuombmB42yrRfIh938bLULjRQ9RkkcwySOQUW23kHCi2c5klxuEbp/6mp4pAZrCU07iTZvlrEhPP2vtcSGjvHSm1aycYRf2bAC0WR5VtTveoYErA99+Skcz8UxlB9D3OhDUH4R2+vMec2KljcvfipxMUXU1+KWkQ/j3sm344XsbkxpbjFTLliTrBmRNMHRyDRW46X/8L+8D+P05AK3wOktGnjXseW+l8aTSqP5nfDJgZeX1zTye2yCshXx8hIb3niA/1ZHApSlSNdYgUmcmbOilzZ9HZuCvFvRz7AjfAsub7oR1zf+F7q9qZqvH99q4Mcdbx78C/zb4P/Bg5P/D/qz76LI+k9xe+wGPJcMYWwFomeBYKGsGZHs9A6RUKrUGHlGll8YbyJRMGnoaiJOUVlGm36xPC9b4WVAAVLP5RTKQbWDJNpjLZ0hHYSHNN1PUS9HvPzahvKGGbxvJGml9bqGFdDIl7FmRRvuw8c6v4E/6f4qPtT+bUs8w6506RO1sTd1Fr439BfIaRdiayCA00IKdoYpURR9GqUGujoH4wVMkFCKiFKwllgzIslLdBRpFHFNxySLI08yZA0M8YRDxsAo/c4vlp+iCC1FQsoLol0cUi4Tze5xOl/eig5Jq60lNrzxAM9k86YZ1vIa62+USCV4TmQZzVtS+L7jHRPXUxfRjR7qGTYGeAs4vh87/dgj35vtpWNd1IOcyGjU0YmnwgVrh2UVSSeaMNdn+L0xZ9Xdi4w5jkGKHPtJIE+QQJZfIt9PQjlIQjlc0BGmIWVzMQW/loBHTcBl5CkH5+GLyyjQ95LWd+dKs/Pk/SMDyghypma9R5snjnhJDW+WwZtmTJGAJwr8yobpJTZ+SYVPS70qT0XPQio6FxC5qMM9K49KSSryHkYOofN7HOX5ip2PJ8+nyH4LGtxe67FG3vS1i+/DUjTJmxe30+98vJVCbJPKbxSycFe4vjJdO6mGenKr9nbOTrVcX75uHi1dMZ+ZaSnsdlGeteB2YOdStINyqjXvtYREw76aS3bjjTfiC1/4AkZHR0tH7HnvF2/CniuvgzcQLB2pzGvwFZwe/RF8SrJ05BX4vte/DH4cx7KXkFN2Iii7aVgrwaTILEVJy03Amz2BC3ACUanwsuPW1fVhx6Z74fOenGclntv/DsQTG2g4/Mp90NlUyvNH49fi4cmPolFpsd7RzLPtPMnEEWOGhJHfbcNCPpCK4czck9iCCRp+v9Jo3Z409uz8LwT8U6Uj1Tl84vUYGdsNw/CWjlRm08YH0N78IhQXb5xVncGx03Gi/yJoWvV6mpnnTUN/gEOp67HB32BtlNFN0WOzX7ae5slrRYxxma3Zcx0vpgx0ZZ/H2fpB+FEo5TZNW9tv0dv5BDzubOnI3MSSXTh45C3IF+pKR5xR27U4o3QtAqUjlVkKu2vP8wrKM1I6UpmlaAdlasn72NTFeMj4AtJoLx1xzqM/vBn3/PMXkZpwrj3nnnsubrnlFmzevLl0pDZWoUj+Pc4gkfQqqdKRV8NCeX/s9dibeCNyRivUfBguVYVMPemm1GO4MnUnWvQxCpFfEZ94TxfqzhiF4rdvGMzkk90I9Y9TZPfqRjyTSnmybf/U/0n0ZS9FvVKHRq/Lmmnn6Jjvl/KtgFguie6p+3DD5M1oNCamv1giHqU8L6Q8Q87snNrfjeABsrMwt51M4oJORDrHHAnD1GAXQnvH4cpW/2ziQsqzYzrPL5/4S4zl34pNgbA1xN5AESS/XzzslZGmMnM0zWsxeQOGfSSS24a/j/fGvouoESvlNk18N5V/C5XfY28nC0PwUbIz5exalZlptx1Tg3R96Voo2erXdynsju+iPLcucp61toPfUDsYqN4OytSS9+D4WXgs/0mMe3bBlJXSUWeshEiuqnuSMg1v3Eau6pCoPDv76U2fxB90fwZv0r6D35n4Oj499ml8KHsb2sj5ZW894G14OUmyj7qDGm4AuryQPNTTz8hjdrLynHX52Lbfa78ZW0N3UYx0CAO5SRxM56x0IpNENj2ATfEH8d7M7WhQqG+ana9CHYhUQ5VQJG1np5Vk+0jgZST6rNtBnvy5Ek2e6ccdSQ+txPdhuVNIFkxrQo1/53uy1t+pT+4pTsLrpuhsVp6S7KF8aqgnJ3bOTjPstoXqQnJTdFYpnxlpKeyuPU8ndp7ss1VRfM78i1Itefu1OHYN/QzNqYM131ZYCZZVJO2qvD43hLA6SUY5u4fGM7Tnuk9gtycFf6AJcrCjYpI8Yfq086JK7jCkYHvFvMrJyrOC8PK90490ft16ZcO28I9R53mY0gPoMB/GNZkf4SPaz9HlleCqkL/ki1KezhuxxE4caD0pn9lJIjF1iiQpkGvMc1vgEHQaPCV0ipRViphJHPnVucMUPfJjj/w6XT7Om8QWtDy6lTz8wZPrS3JxQ3MuDLK/+aQ87FKt18LR9V0Cu7lua+nYpUBLxXxmprl8di4kd8i2HZRTLXlL1PlsU1/EecM/pjY/SMHR3EHRamDZRNK6fpT430rJZ+awK/FrBIuZ6Q86RPKEIIfaIYU750ywKrAGkVxgnhxR8isbPtJxIz7T+yl8uvev8Pvhn+Ji3xgCoaaK+VnJEskaqoQapxxsq5zXjMQRp2NcJAzB1or5zEwz8zw3vBet3ucxpeWmNy/OTN+D7E/r1jB7KGtaj0GOFAxs1I+iwy9BCZ1sN9x+Kn8NdR9sOSkPu1TrtZAdnGMp7LbyrEV4SSQr5TMzLUU7KKea8i75WDcFN9vSz8FrZl+lBXZpuXF9nij97JinnnoKDz30EDIZFjRnnH75NWjfehpcbh5GnExX5gj2FA+i6B2Hyz99r840Fdukpk+Dz9UGFw0LJG+kYsp5DYrcRlCUzIp5zE5LkWc+uxF+bKA8oxXz45R3uyFH+lGUjYp5zE5O8uSU9k/CZd1Q50muynmVUy7XjoCxieqJhlAV8iqnmXnKRSDqGsORbA8mtChyhouG2/zCqqK1XGuEI8uCBo8xiQ+4n8EGr0nfpWh9Vp4ZX5rqftJR3WfzURq2bYfipk5nVj7VUk3XItsOv7mZzlH9WiyF3UuR51K0g3IqeElM/HEUi26YvDVglVTI83XdCLe7HkGzgAHvRmRdfKvJXgH7X3gah3/zCNSsc+3p6OjAddddh4aGhtKR2li2iZvr/+9NOKvKxM0ZqWdxvnIMafkwZF8/dUrO7lVI2dMQKTbBVWWYOlUcA/yHqbu1vwHNLEWeRq4H0WI3v+OudORkkmYGeuAFytN+RpNxkiczgkNQfCOQZVIuG9R8C5rMLZRn9RnzSnkeKmzE/akrMGnwwnp+DFG2Zu+LRR11UhLX+I7iNCUO94wZ/ZmM44Tjus/m69Fq7qSz8FDXOUtxLZbC7qXIcynaQZksUlBlfrGeg1tlphcRUL50ZZkHSOAPBLZDk6tfZ+ZXP7wZd399nc5u24nkJeo+7Apm4HXVbI5gFZEjYXw6F8Ix1YdJ3YN2dwEb3Hns8WXgl1f3vSfByvBkMoy9yibkhUjehLNJJD1ziORblD5srndDcdUw+1jC1FUYahZFjSIwkyIESvwUt+SiCEvmGeAgFG+Aovka7vdVQadzmQUK9w3VSsWiWToX9YyKj84Voh85ulv4DZSiaUDPp1HUc3QuLhudbwnLxteRExVy+lxcNi7XIpatUn3RSV4+h0xlcrl9VKbFuQGl8fXjcxkUlb1cXx4aH1I56HxuPw39a5n1rkLVsrm8kOn6reWy6YU0+Ub+lXO9XG9+qrfAvMr2woSKJ4xWikbZr6qzrkXyd21E8lLPGLY3eOFRaqtQLZ9BIdYPdeIIzHgfUKCQn51GlklAIpD8DXA19MLXugOeUANkF1XoPBu4SY6o0/nyYwegjR9EMR9HMTtpNQSJ77F5QkCoHV46l7u+Ex7LQecvXlw2PTOB3PA+FJODKBaSlBJkPonkzLK1bIMSpJ/dHpbP0rdr41VlmzqGYmaSzhWjBlGwyvWqstV1UD3S+WssGzcqFvxCfIDq6yjVV//L9WU1bBJHKdQBd9MmeBt64A5GF1RfuqZSZ5ZCZuhFmLHj1rV7ub7o2nGdIdSGQOcZdP0aF9TZWGWjjrMQ47KxL1YoW6AZ7uat8Db2LkLZ8lZHvWxl43ZGZVJHD8BMDZPvT037Bgn/q+qtcRPcgToqG7djZ2V7ZjSHZ/hedmn4XQ0WybvWq0i+rySScw23z9IO46xQEn6XsyFZ0SxSsJNDeugluGIH4dNjVCWVv2vAhVyAGl3bbvjqWklMvKwzNaFrGvn8MPKjdK7MCbiLeTpf5UuXlcLQ67cg0H4afMF6CiRqO9l02fJUtn1A7AgC+tzLoqyy+TrhatkJf0M3FA/35KU/OmS6bCNUtgPOyhbppcZ3ek1lMwwTWjZhCb4rcQQ+MzXnOVR4UQh0wdu+G94I1xeJf41l0qhMuYk+aKMvIagOwFWkiG4O0nIT0LAZ/rbt5J/csdV2MoOf9srEkaPr54ofgs9I2pbN87IvzqNsqorc+DGrow6qgw7LtoPKRp1drWWjelMzMeRG9kNxUm9hEsqWHfDVU9m4E7A5HavPI8kGHHB1Q3Ww8uCRkkgmT0WR7MkcwSXyPkTknN11tS6sms8jO04CUqjuJDPJSuQk0S3knC1QFMWxc+q8ODo+Cjl+BN4qDWA2aW8nfBw5+LkXLx10QD5XoAZ+HIF8H5XN/sY9o0p+mNFt8FLDq6ls1K9kYyNUtmNUtgSVzVknVUvZuL4y6SSM2DH4C3QdHdZXTomiWEeCXNdMZXI+wuD6Sk0Nw5s4BDcvL3FQX1Zn499AZeqF1+u8o7HKls3AmDxCZaPr6NQX5TqgfhMC9eyLzsumUdkyEwPwpI5Q2bitOCtbNkDXsbkHHo/zAIH0Efl0HPrkYfg15+uXud5cjdThhOpJKKtHr2nDgwfkszHk7YAh2UeSp7RIhtQYLkrcjw3GcQq6qztaQZehpidqqrgyKnzQgh0I+j2O3oDIbznM5FR4soNQzLkjrLlIKS3whxvgUfhk9t/VTRcyySkEtHFybWcNroxVtkCpbA5GVnxvM5U34cn0O25wM0krzfCGG+G1KVtBl6CmxuGnaL/W+uLIVaZho9/Lwm9vH8+oZ3J5eHLD86svTwf8oTprqzsn9cVl09KT8M3DF7MIQg63U9ncjspmUNnS2TwCOY6MnT1aWIaFMu9to+g/DLe1h6D9+TKaBCk1RJ0nR4/OOs8yOTlirYWsVm8GtfT9ru14uuEyZF2h0tHqrGuR/D0WyavmFkmmM/YCzpv6OZq0AesRxUrw5rtJw4eQGatZRMqkpIh179ML3r2leuVnyJElPQtf0VlEMht2zozcgJArTz9Vb0TTZfNT2abmXzZQ2dzOypYnUdV1Hf5imhp4bY2gTFxuprIV4LbKdvL10SU3MrqCoJmYd5mSUv30K2+tMlWvg0yRIlsjt7D6ckURkgu29aVT5JPRPVS2+LKULVkMWSMZd/GVzVtqgYfDqiuMgMy+WL2+NcmDLAUj0/VWm/iXSUgNCCgG+YZ+kr3cQY96evBEyzsxEeyF6fDRWRbJO/9pHYvkOTYiyWwcfgC7J+9CY+6oFQnMbnhZVyNcbj+8kjovRykTM0IIa0PUI9tsXuDZiDAJnDJPR2FS5NweLQYPOThL4VxkXTz5Eli+srlLZZPmX7Zs0U8tKgOfESebT84npVD0oshwSyc3FKewcKVZaPWxqhGUSYKcdnc66pCqkSyG4VXH4TF5wfLc9bV4ZXNT2Uarls2QvMi426wOaSFlSxQj8Ksj1m2IatFkXOlGWNEW5BuWKGsG/Mb4q25DaLIfSW8nnm+9Fn1NF0Jz8dNFznh4BURyftNdS8jx9svwm7Z347h3C6aK5Biahnw+BTUXs1KOhqOKg17XDpmGAKqaoTzjL+c9O+ULGatyHd7CmZOwlEa66EOukK54nnLKGRKVbWECyTguG1/HBRYuIOWQK7opv1fqaGbizYd5GLqQMrEosJiohWTFc5QT71bvkQrzjorLBKUssgYNT2f4XcW0WGWT7MuW1GT4pPyCy+an65Mj3cvn5z5fgVdtWCO5hfmhBwXyZoXyS5PvZ6h+DMRNBce82/BE+3txvOmimgRypVh1kWSZYGYA0cR+1GWPI1AYhVvPWM5YV9TQIscWFNkx3MsNGnXIVwnzZRLkjfIoRXbOJk+qMVxsAg2Uqrp4xFTRKscX1HszTsommTJ65bElLRtvWltP9dTEZVpgfcWLdZgi4Srw7jhzKLurqKCH64uuwELpN1uQIfGq1jjqqAOd9sX5DbXLJCm6m6QOMm/tVlU5bnGbEjbIFN0uQn31me1UtrnvS7oMFc2yijqZO9KFifJUMYoJqpG0pxFZTysyvlZMNOxB3teM4jyWJK1EJLlsIvl+FsmrnYvkXFx64Cvoye9bsGMyDze9D8daL4GuVO7NNtHQ/zWTtyFgJEpH5s9x72l4ovfDyHibSkdOZjHL9qum9+Jo6+uhLUPZ+jzb8Nimj5xUNn9+Epce+wba1GMLbmws/A92/j6Gontg8LrDCmwbvAfnxO6gMlXei7QWDgbOwVM970POU/l5X0XP49LD/4iuwsEFDX8ZjpIfav0A+povoLJVfupkV/9t2BP/BXzWLYCF8ULwEjy74TrkPfWlI6+mcWo/3jDyr4hor97vdD4kqHO7f+tfIB7YQKK40DEZtdkf3Iyfn+rD7eVm4dVWC3ZnWzxrXBSV1vKqgoWgzHEuf24SwWJywQLJ8NDNV0jMOaHH+PXqf68Fj5GjvOaOH7gD8BcXHmkxLLIKRW/VtgxjexarPrljdC3SdbJDkXR4tfSy+eJSsGwiyc2f3+S80FSk/y4m/IRKpfNwWuzLY3cNzEV6fIzhm+Og/Cqdh1PRZihZC6ocqHgu1UtDfilAMrLw66hTfK25aRRSpUwFJWSVazHQpemnlyqdh1PB14icFFqUsnEkqSs81J67bIbsWZRIjCm4+DopFc/Dado3Fsf31aIHeW8jOf7c56slLV4Y4ZzFVYFlQHUFqBIXbrZGsYnqZmeZO6+CO2ItYVkMeIcTO8fLuetIKO0X1NrhpGxZGkayECwGOg0RK5UtG2hD0tVEQrJw4YpLDYiFN805HGXyrsiinItJelstYZoLvkWTdwUXRSR52VYq2AWzyhMnSQ/Zs0i+mFMilhDOheqNICuHF6Vsmuyjc62EtC0eC78Ky0zC17kojXvC1Y5YZHPVRhcL9yKpNFo9/UJgZ5sK9FY9F5PwdkCvZVPYOXBSNm6USaWJB3qlI/OD17tN+TfMKSjTYrPwMtmJFpP0tyMvBy2bFoION1K+NtsnQLi+7GxyQtLTQh1yuGqnlvLRZyhiX2jZuANN+Dur1gl3bmPejYvSzqb8PeTT1f1+tbOsIsnVu9A0HtqCrFJnG5VVg0VrLLSNIiB/xXOUU8EbxZhvk9UbLoSkqwET4W3kmN6K5ymnyeAmayHzcpVtJLCNhsoLK1vaVYdYcKMlyJXOMxbejpyLBMD6bX6waI2GdlCZfCflPzMl6rZgyLsFmrSwRjmhdFAHuRnmHGUqp8nQJiobRWXWb/ODyzYSOo2EpHp9pUMbMOrtXbBwjSldmKjbSfVV/VpOBDZTpEyjEeu3+aFSPYyR3+vkY7PzX0habpZNJBcr4p6q34FjobORo4hhvsRdLRiIngNNqf6qUKa/4XxMeShimGc0yY3geOQcJAOdtm+Gi1MjPxY+l8rm7BGtSiRoeOu8bOdhytvl6JnZSnAUejR0HgnKljmHipN12zHo30ENZn5izI10zNON0fozLOG3Y7D+LKTcTfPuaNjOvrqzkfU2Vo3sGC5bf2AXdTTzW+tXLttQw9m29cXD+/66c6hsZNc8y1aQKI96Ppd92xmvPw0jFCDM93YTl23Quw0jDXvmXD2yVlg+kaTEz0ovRjre/DorCppPxJClqOZgw+uQpJ7ZuplcIf+ZKRHZhMN1F8+r4bGIDPu24ETTa6G7QxXzn534CYSRwNZ5l+1w9BIaSndTZvZlS4e6caiePk/D7vmUjRvRQOP51AgCFfPnZFIDOdJ8Kcb8tTc4bmgpisIPN74eWX8zJFmueI6ZaazpLByqu8j6Xq1l4g6tL3g6BqlMRpUylROX7XjTxTTa6LUe46sVjsKPNL7OcdkmortwLHIejTZqj145quPgoq/lEvLFYMX8ZybVF8VhaicxD3XuNU6GsW0JdwuONvMStHDF/OebVuL25rKJ5GKS9bfgpea3YJiEMu/wPg0PQ9M0lN1ffylOtLzOUW9aZqD5Ahyuvxhxqnin9/C41x7xbcaL7dcg7W+zjUrKlMs2FNhRU9kyrnrsr7sUR1vfYE3aOGWo8Vwq20VUNp4YcFY2bnAskM+3vx3xED93axMhh+mzTVdixL/V+q4TuEzc0F6KXkaR1rmOosgyfA0OUn0lSPw5HydwfQ0EdmJ/yxXI+Foc19crZdti5eG0vlJKI9n42prKxhHZkebLSCjPtzoBp2VjPzoR2IOX2t+KAr/O1iETDafjxaY3Y9zb47gT4I6Gfem55qso+t9Nw/qF39dcaZbtRWBnvfEadG7bBcXaGPaV+wvzTTlfE+IeEh/ThMfIg5/u4PVm/LeZ8NE8DV8nvRtwIPp6HG27HBq/KpP+5jQVaSgZD/QgBz/cdC65qFnnk2c1Cf5No+FaRqnHceq197de8fJQdHae1RKXjYfBvBO5m3eyMXU6l0l/e/WinXLZpjxdFBG+lsr2RhLI8En5VUvlsmXk8PTaQLN62bJKBP3BM/FS61WYqqFsOX8rkkoz3HqutIazWLG+eGKB74VNebuxjxqoFflQhzY7v2rJKlNwI9SiGz4jRWXSrXV6s9c08hEWtow7iuPBs/Bi5zusKLwouyrmO1cql002VMs/+Fy2ZYtejmOtl9XsiwYJ5URoK3RThtfIWHVlVza+hfNSx1upA26lTHghzcn5zpWSdD0SciMUo2DVm2yyb7Avvppy2bgjPNB0OXW+55FAVr/POp90/PmnceDXj6CwHl8E9qG/uQnnXf3uBT9xMxuFGl1r7Dk0pQ+itXAUHhIV3oPRchuKjLjHHff3YjB6LtJB+/uCdoTT/WhLPI/G7DHU62PWFmO8CJhnC3mIPEniNkoR7nATRQgO7gtWg8vWFN+H1tQ+NKn91ODT1sJtkxx9ZtlG6s9EItQz531Bp8xdNsUSSC7bBA2bB5tfU1MkPhNvIYbW+PNoyBxDi3ocXj4HiVi5TBMk+FO+DdY9yHSgY8H11RDfj5bUS2jOHUPIiFtlYlHhWWmeUJr0dGMsuBVjDWcu+N7ZypYtNt2hUtl4Nnk6MFj8sjWlD6GZfNFTpGCBysa+wd3dBA3LuWx8q4I7eaeReK088IOb8LOvrdPHEj/0/5FIXrX4IjmTcKqPIpU0/FqCHMUDlXq2bLDNiq4Wu9IUiroCmVH4CxPknAVr3SHffM8GeVnIwsSqEoHsiOWoAS2+7GXLKyGonjpkqJNZzLJxffnUmBUR8TpSLlMyMj1Tvtj46Np58jGEC2Mk/DoynkYUvA0UBTZaArbYnCpl47WiPDOfivQsSdlms65F8sMkkucvQSQpEAhOHR74j5twO4lkYr0+u13pHoNIIokkktO0EiyrSAoEAsFaY9lEcqV6AYFAsH5YCR1Z1kiy0uJQkUQSSSSnaV0vJi+Xjf8VSSSRRJpPWgmWbXb73X/2aZz5ujfB41vbz3EKBIKV4/E7f4z7/uNfkIpNlY7Ys2aWAHV3d6O+vh6ykxdCCwQCQQUmJycxMjJivQrZKQsVSbBI1so3vvGNYmtrK4urSCKJJNKqTiSSxcOHD5fUq3ZEWCcQCARVECIpEAgEVRAiKRAIBFUQIikQCARVECIpEAgEVZjXEqBvfetb+NKXvoSxsbHSEYFAIFid7Nmzx9Ks3t7e0pHamJdIPvroo7j77ruRSqVKRwQCgWB1wmu0b7jhBjQ1NZWO1Ma8RFIgEAhOFcQ9SYFAIKiCEEmBQCCoghBJgUAgqIIQSYFAIKiCEEmBQCCoghBJgUAgqIIQSYFAIKiCEEmBQCCYE+D/BwebFSOKvNmzAAAAAElFTkSuQmCC;imageBackground=none;" vertex="1" parent="1">
                    <mxGeometry x="400" y="220" width="214.23" height="140" as="geometry"/>
                </mxCell>
            </root>
        </mxGraphModel>
    </diagram>
</mxfile>